<?xml version="1.0" encoding="UTF-8" standalone="no"?>
<svg width="150px" height="150px" viewBox="0 0 150 150" version="1.1" xmlns="http://www.w3.org/2000/svg" xmlns:xlink="http://www.w3.org/1999/xlink" xmlns:sketch="http://www.bohemiancoding.com/sketch/ns">
    <!-- Generator: Sketch 3.5.1 (25234) - http://www.bohemiancoding.com/sketch -->
    <title>Mini Challenges</title>
    <desc>Created with Sketch.</desc>
    <defs></defs>
    <g id="Page-1" stroke="none" stroke-width="1" fill="none" fill-rule="evenodd" sketch:type="MSPage">
        <g id="Mini-Challenges" sketch:type="MSLayerGroup">
            <circle id="Oval-9" fill="#D0011B" sketch:type="MSShapeGroup" cx="75" cy="75" r="75"></circle>
            <g id="noun_20971_cc" transform="translate(35.869565, 35.869565)" fill="#FFFFFF" sketch:type="MSShapeGroup">
                <path d="M39.2255597,51.2867494 L26.9763764,45.1246048 L26.9763764,32.9745049 L39.2255597,39.1358505 L39.2255597,51.2867494 Z" id="Shape"></path>
                <path d="M26.276354,44.7898099 L14.0279763,38.6276653 L14.0279763,26.4783644 L26.276354,32.63971 L26.276354,44.7898099 Z" id="Shape"></path>
                <path d="M13.3907868,38.3392143 L1.14240906,32.1770697 L1.14240906,20.0269698 L13.3907868,26.1883154 L13.3907868,38.3392143 Z" id="Shape"></path>
                <path d="M39.2255597,64.3709191 L26.9763764,58.2079755 L26.9763764,46.0586747 L39.2255597,52.2200202 L39.2255597,64.3709191 Z" id="Shape"></path>
                <path d="M26.276354,57.8739796 L14.0279763,51.7126341 L14.0279763,39.5625342 L26.276354,45.7246788 L26.276354,57.8739796 Z" id="Shape"></path>
                <path d="M13.3907868,51.422585 L1.14240906,45.2612395 L1.14240906,33.1111396 L13.3907868,39.2724851 L13.3907868,51.422585 Z" id="Shape"></path>
                <path d="M39.2255597,77.4550889 L26.9763764,71.2929443 L26.9763764,59.1428445 L39.2255597,65.30419 L39.2255597,77.4550889 Z" id="Shape"></path>
                <path d="M26.276354,70.9581494 L14.0279763,64.7968039 L14.0279763,52.646704 L26.276354,58.8088486 L26.276354,70.9581494 Z" id="Shape"></path>
                <path d="M13.3907868,64.5075538 L1.14240906,58.3454093 L1.14240906,46.1953094 L13.3907868,52.3566549 L13.3907868,64.5075538 Z" id="Shape"></path>
                <path d="M51.8275735,32.399201 L39.557446,26.2114873 L27.288124,32.399201 L39.557446,38.5877136 L51.8275735,32.399201 Z" id="Shape"></path>
                <path d="M38.9065621,25.8631088 L26.6380457,19.6745962 L14.3679181,25.8631088 L26.6380457,32.0516215 L38.9065621,25.8631088 Z" id="Shape"></path>
                <path d="M25.9348011,19.3781548 L13.6654791,13.1896422 L1.3961571,19.3781548 L13.6654791,25.5666675 L25.9348011,19.3781548 Z" id="Shape"></path>
                <path d="M64.773557,25.8886779 L52.5034294,19.7001652 L40.234913,25.8886779 L52.5034294,32.0771906 L64.773557,25.8886779 Z" id="Shape"></path>
                <path d="M51.8533511,19.3525858 L39.5840291,13.1640731 L27.3139016,19.3525858 L39.5840291,25.5410984 L51.8533511,19.3525858 Z" id="Shape"></path>
                <path d="M38.8815901,12.8676318 L26.6114625,6.67832006 L14.3421405,12.8676318 L26.6114625,19.0561444 L38.8815901,12.8676318 Z" id="Shape"></path>
                <path d="M77.7195404,19.3525858 L65.451024,13.1640731 L53.1800909,19.3525858 L65.451024,25.5410984 L77.7195404,19.3525858 Z" id="Shape"></path>
                <path d="M64.7993345,12.8156946 L52.5300126,6.62718193 L40.259885,12.8156946 L52.5300126,19.0042073 L64.7993345,12.8156946 Z" id="Shape"></path>
                <path d="M51.8275735,6.33074059 L39.557446,0.142227922 L27.288124,6.33074059 L39.557446,12.5192532 L51.8275735,6.33074059 Z" id="Shape"></path>
                <path d="M39.5566404,26.2114873 L27.288124,32.4 L39.5566404,38.5877136 L51.826768,32.4 L39.5566404,26.2114873 L39.5566404,26.2114873 Z M28.3796433,32.4 L39.5566404,26.7620213 L50.7352486,32.4 L39.5566404,38.0379787 L28.3796433,32.4 L28.3796433,32.4 Z" id="Shape"></path>
                <path d="M26.610657,19.6753952 L14.3421405,25.8639079 L26.610657,32.0516215 L38.8815901,25.8639079 L26.610657,19.6753952 L26.610657,19.6753952 Z M15.4336599,25.8639079 L26.610657,20.2259291 L37.7884596,25.8639079 L26.610657,31.5018866 L15.4336599,25.8639079 L15.4336599,25.8639079 Z" id="Shape"></path>
                <path d="M13.6646735,13.1896422 L1.3961571,19.3781548 L13.6646735,25.5666675 L25.9356066,19.3781548 L13.6646735,13.1896422 L13.6646735,13.1896422 Z M2.48767646,19.3781548 L13.6646735,13.7401761 L24.8424762,19.3781548 L13.6646735,25.0161336 L2.48767646,19.3781548 L2.48767646,19.3781548 Z" id="Shape"></path>
                <path d="M52.529207,19.7009643 L40.2614961,25.8894769 L52.529207,32.0771906 L64.7993345,25.8894769 L52.529207,19.7009643 L52.529207,19.7009643 Z M41.3522099,25.8894769 L52.529207,20.2514982 L63.7078152,25.8894769 L52.529207,31.5274557 L41.3522099,25.8894769 L41.3522099,25.8894769 Z" id="Shape"></path>
                <path d="M39.582418,13.1640731 L27.3147071,19.3525858 L39.582418,25.5410984 L51.8533511,19.3525858 L39.582418,13.1640731 L39.582418,13.1640731 Z M28.4054209,19.3525858 L39.582418,13.714607 L50.7610262,19.3525858 L39.582418,24.9905645 L28.4054209,19.3525858 L28.4054209,19.3525858 Z" id="Shape"></path>
                <path d="M26.6372401,6.67832006 L14.3687237,12.8668327 L26.6372401,19.0553454 L38.9081732,12.8668327 L26.6372401,6.67832006 L26.6372401,6.67832006 Z M15.4594375,12.8676318 L26.6364346,7.22965301 L37.8142372,12.8676318 L26.6364346,18.5056105 L15.4594375,12.8676318 L15.4594375,12.8676318 Z" id="Shape"></path>
                <path d="M65.4494129,13.138504 L53.181702,19.3270167 L65.4494129,25.5155294 L77.7195404,19.3270167 L65.4494129,13.138504 L65.4494129,13.138504 Z M54.2724158,19.3270167 L65.4494129,13.689038 L76.6280211,19.3270167 L65.4494129,24.9649954 L54.2724158,19.3270167 L54.2724158,19.3270167 Z" id="Shape"></path>
                <path d="M52.5026239,6.60161286 L40.234913,12.7901255 L52.5026239,18.9786382 L64.773557,12.7901255 L52.5026239,6.60161286 L52.5026239,6.60161286 Z M41.3248212,12.7901255 L52.5026239,7.15214679 L63.6804265,12.7901255 L52.5026239,18.4281043 L41.3248212,12.7901255 L41.3248212,12.7901255 Z" id="Shape"></path>
                <path d="M39.5566404,0.116658857 L27.288124,6.30597055 L39.5566404,12.4936842 L51.8275735,6.30597055 L39.5566404,0.116658857 L39.5566404,0.116658857 Z M28.3796433,6.30517152 L39.5566404,0.667192779 L50.7352486,6.30517152 L39.5566404,11.9423512 L28.3796433,6.30517152 L28.3796433,6.30517152 Z" id="Shape"></path>
                <path d="M65.7949935,26.1148043 L65.7949935,38.2641052 L78.0433712,32.1027596 L78.0433712,19.9526597 L65.7949935,26.1148043 L65.7949935,26.1148043 Z M77.4770701,31.8806284 L66.3612947,37.4722632 L66.3612947,26.4472022 L77.4770701,20.8563664 L77.4770701,31.8806284 L77.4770701,31.8806284 Z" id="Shape"></path>
                <path d="M52.8747877,32.7028336 L52.8747877,44.8521345 L65.1231654,38.6907889 L65.1231654,26.540689 L52.8747877,32.7028336 L52.8747877,32.7028336 Z M64.5568642,38.4686577 L53.4410889,44.0594935 L53.4410889,33.0352314 L64.5568642,27.4435966 L64.5568642,38.4686577 L64.5568642,38.4686577 Z" id="Shape"></path>
                <path d="M39.9199432,39.1358505 L39.9199432,51.2859503 L52.1683209,45.1238058 L52.1683209,32.9745049 L39.9199432,39.1358505 L39.9199432,39.1358505 Z M51.6020197,44.9016745 L40.4862444,50.4933093 L40.4862444,39.4682483 L51.6020197,33.8774125 L51.6020197,44.9016745 L51.6020197,44.9016745 Z" id="Shape"></path>
                <path d="M1.14240906,20.0269698 L1.14240906,32.1770697 L13.3915923,38.3392143 L13.3915923,26.1891144 L1.14240906,20.0269698 L1.14240906,20.0269698 Z M1.70871025,20.9306765 L12.82368,26.5215122 L12.82368,37.5465733 L1.70871025,31.9557375 L1.70871025,20.9306765 L1.70871025,20.9306765 Z" id="Shape"></path>
                <path d="M14.0102542,26.4783644 L14.0102542,38.6276653 L26.2594375,44.7898099 L26.2594375,32.63971 L14.0102542,26.4783644 L14.0102542,26.4783644 Z M14.577361,27.381272 L25.6923307,32.9729069 L25.6923307,43.9971689 L14.577361,38.4063331 L14.577361,27.381272 L14.577361,27.381272 Z" id="Shape"></path>
                <path d="M26.9650987,32.9888875 L26.9650987,45.1381884 L39.2150875,51.3003329 L39.2150875,39.1510321 L26.9650987,32.9888875 L26.9650987,32.9888875 Z M27.533011,33.8917951 L38.6471752,39.4834299 L38.6471752,50.5076919 L27.533011,44.9168561 L27.533011,33.8917951 L27.533011,33.8917951 Z" id="Shape"></path>
                <path d="M65.7949935,39.1837924 L65.7949935,51.3338923 L78.0433712,45.1717478 L78.0433712,33.0224469 L65.7949935,39.1837924 L65.7949935,39.1837924 Z M77.4770701,44.9504155 L66.3612947,50.5420504 L66.3612947,39.5161903 L77.4770701,33.9253545 L77.4770701,44.9504155 L77.4770701,44.9504155 Z" id="Shape"></path>
                <path d="M52.8747877,45.7726208 L52.8747877,57.9219216 L65.1231654,51.7597771 L65.1231654,39.6112752 L52.8747877,45.7726208 L52.8747877,45.7726208 Z M64.5568642,51.5392439 L53.4410889,57.1292806 L53.4410889,46.1050186 L64.5568642,40.5133838 L64.5568642,51.5392439 L64.5568642,51.5392439 Z" id="Shape"></path>
                <path d="M39.9199432,52.2056376 L39.9199432,64.3549385 L52.1683209,58.1935929 L52.1683209,46.0442921 L39.9199432,52.2056376 L39.9199432,52.2056376 Z M51.6020197,57.9722607 L40.4862444,63.5630965 L40.4862444,52.5380355 L51.6020197,46.9471997 L51.6020197,57.9722607 L51.6020197,57.9722607 Z" id="Shape"></path>
                <path d="M1.14240906,33.097556 L1.14240906,45.2468569 L13.3915923,51.4090015 L13.3915923,39.2589016 L1.14240906,33.097556 L1.14240906,33.097556 Z M1.70871025,34.0004636 L12.82368,39.5912994 L12.82368,50.6163605 L1.70871025,45.0255247 L1.70871025,34.0004636 L1.70871025,34.0004636 Z" id="Shape"></path>
                <path d="M14.0102542,39.5481516 L14.0102542,51.6974525 L26.2594375,57.859597 L26.2594375,45.7102962 L14.0102542,39.5481516 L14.0102542,39.5481516 Z M14.577361,40.4510592 L25.6923307,46.042694 L25.6923307,57.066956 L14.577361,51.4761202 L14.577361,40.4510592 L14.577361,40.4510592 Z" id="Shape"></path>
                <path d="M26.9650987,46.0594737 L26.9650987,58.2087746 L39.2150875,64.3709191 L39.2150875,52.2208193 L26.9650987,46.0594737 L26.9650987,46.0594737 Z M27.533011,46.9615823 L38.6471752,52.5532171 L38.6471752,63.5774791 L27.533011,57.9858443 L27.533011,46.9615823 L27.533011,46.9615823 Z" id="Shape"></path>
                <path d="M65.7949935,52.2687613 L65.7949935,64.4180621 L78.0433712,58.2559175 L78.0433712,46.1066167 L65.7949935,52.2687613 L65.7949935,52.2687613 Z M77.4770701,58.0345853 L66.3612947,63.6262201 L66.3612947,52.6011591 L77.4770701,47.0103233 L77.4770701,58.0345853 L77.4770701,58.0345853 Z" id="Shape"></path>
                <path d="M52.8747877,58.8567905 L52.8747877,71.0060914 L65.1231654,64.8447459 L65.1231654,52.695445 L52.8747877,58.8567905 L52.8747877,58.8567905 Z M64.5568642,64.6234136 L53.4410889,70.2134504 L53.4410889,59.1891884 L64.5568642,53.5975536 L64.5568642,64.6234136 L64.5568642,64.6234136 Z" id="Shape"></path>
                <path d="M39.9199432,65.2898074 L39.9199432,77.4399073 L52.1683209,71.2777627 L52.1683209,59.1284619 L39.9199432,65.2898074 L39.9199432,65.2898074 Z M51.6020197,71.0564305 L40.4862444,76.6480653 L40.4862444,65.6222052 L51.6020197,60.0313695 L51.6020197,71.0564305 L51.6020197,71.0564305 Z" id="Shape"></path>
                <path d="M1.14240906,46.1817258 L1.14240906,58.3310267 L13.3915923,64.4931712 L13.3915923,52.3430713 L1.14240906,46.1817258 L1.14240906,46.1817258 Z M1.70871025,47.0854324 L12.82368,52.6754692 L12.82368,63.7013293 L1.70871025,58.1096944 L1.70871025,47.0854324 L1.70871025,47.0854324 Z" id="Shape"></path>
                <path d="M14.0102542,52.6323214 L14.0102542,64.7816222 L26.2594375,70.9437668 L26.2594375,58.794466 L14.0102542,52.6323214 L14.0102542,52.6323214 Z M14.577361,53.535229 L25.6923307,59.1268638 L25.6923307,70.1511258 L14.577361,64.56029 L14.577361,53.535229 L14.577361,53.535229 Z" id="Shape"></path>
                <path d="M26.9650987,59.1436435 L26.9650987,71.2929443 L39.2150875,77.4550889 L39.2150875,65.304989 L26.9650987,59.1436435 L26.9650987,59.1436435 Z M27.533011,60.0457521 L38.6471752,65.6373869 L38.6471752,76.6616489 L27.533011,71.0708131 L27.533011,60.0457521 L27.533011,60.0457521 Z" id="Shape"></path>
            </g>
        </g>
    </g>
</svg>