<?xml version="1.0" encoding="UTF-8" standalone="no"?>
<svg width="150px" height="150px" viewBox="0 0 150 150" version="1.1" xmlns="http://www.w3.org/2000/svg" xmlns:xlink="http://www.w3.org/1999/xlink" xmlns:sketch="http://www.bohemiancoding.com/sketch/ns">
    <!-- Generator: Sketch 3.5.1 (25234) - http://www.bohemiancoding.com/sketch -->
    <title>Maker Fair</title>
    <desc>Created with Sketch.</desc>
    <defs></defs>
    <g id="Page-1" stroke="none" stroke-width="1" fill="none" fill-rule="evenodd" sketch:type="MSPage">
        <g id="Maker-Fair" sketch:type="MSLayerGroup">
            <g id="Oval-9-+-Flashbulb" fill="#4A4A4A" sketch:type="MSShapeGroup">
                <circle id="Oval-9" cx="75" cy="75" r="75"></circle>
            </g>
            <g id="noun_96727_cc" transform="translate(32.608696, 39.130435)" fill="#FFFFFF" sketch:type="MSShapeGroup">
                <g id="Group">
                    <path d="M7.25634734,70.7824792 C10.4396496,73.961652 23.4002379,62.844213 23.4002379,62.844213 L15.2146036,54.6691989 C15.2146036,54.6691989 4.0779878,67.608139 7.25634734,70.7824792 L7.25634734,70.7824792 Z" id="Shape"></path>
                    <path d="M68.9105843,0.777882234 L61.6344649,8.03973013 L69.8942448,16.287218 L77.1703642,9.02537013 L68.9105843,0.777882234 Z" id="Shape"></path>
                    <path d="M63.3447491,22.8436563 L68.4360548,17.7463511 L60.1713322,9.49886447 L46.8499053,22.8436563 L63.3447491,22.8436563 Z" id="Shape"></path>
                    <path d="M21.5021198,48.4461386 L16.4108128,53.5434425 L24.6755354,61.7957629 L38.0019062,48.4461386 L21.5021198,48.4461386 Z" id="Shape"></path>
                    <path d="M81.4015858,43.6967063 L76.9874729,43.6967063 L76.9874729,30.5886611 L73.7349678,30.5838286 L73.7349678,43.6967063 L68.0406135,43.6967063 L68.0406135,37.309372 L66.4143616,37.309372 L66.4143616,43.6967063 L60.7150646,43.6967063 L60.7150646,30.5838286 L57.4675022,30.5838286 L57.4675022,43.6967063 L51.7682052,43.6967063 L51.7682052,37.309372 L50.1419533,37.309372 L50.1419533,43.6967063 L44.4426563,43.6967063 L44.447599,30.5838286 L41.1950951,30.5838286 L41.1950951,43.6967063 L35.5007408,43.6967063 L35.5007408,37.309372 L33.8744876,37.309372 L33.8744876,43.6967063 L28.1751906,43.6967063 L28.1751906,30.5838286 L24.9276295,30.5838286 L24.9276295,43.6967063 L19.2332752,43.6967063 L19.2332752,37.309372 L17.607022,37.309372 L17.607022,43.6967063 L11.907725,43.6967063 L11.907725,30.5838286 L8.65522116,30.5838286 L8.65522116,43.6967063 L4.45860097,43.6967063 L4.45860097,27.6703936 L81.4015858,27.6703936 L81.4015858,43.6967063 Z M1.20609588,24.4960534 L1.20609588,46.8710466 L84.6540909,46.8710466 L84.6540909,24.4960534 L1.20609588,24.4960534 Z" id="Shape"></path>
                </g>
            </g>
        </g>
    </g>
</svg>