<?xml version="1.0" encoding="UTF-8" standalone="no"?>
<svg width="150px" height="150px" viewBox="0 0 150 150" version="1.1" xmlns="http://www.w3.org/2000/svg" xmlns:xlink="http://www.w3.org/1999/xlink" xmlns:sketch="http://www.bohemiancoding.com/sketch/ns">
    <!-- Generator: Sketch 3.5.1 (25234) - http://www.bohemiancoding.com/sketch -->
    <title>Office Hours</title>
    <desc>Created with Sketch.</desc>
    <defs></defs>
    <g id="Page-1" stroke="none" stroke-width="1" fill="none" fill-rule="evenodd" sketch:type="MSPage">
        <g id="Office-Hours" sketch:type="MSLayerGroup">
            <g id="Oval-9-+-Flashbulb" fill="#D0011B" sketch:type="MSShapeGroup">
                <circle id="Oval-9" cx="75" cy="75" r="75"></circle>
            </g>
            <g id="Clock" transform="translate(35.869565, 35.869565)" fill="#FFFFFF" sketch:type="MSShapeGroup">
                <g id="Group">
                    <path d="M39.1301739,5.21791304 C57.8298261,5.21791304 73.0432174,20.4310435 73.0432174,39.1306957 C73.0432174,57.8303478 57.8298261,73.044 39.1301739,73.044 C20.4302609,73.044 5.21713043,57.8303478 5.21713043,39.1306957 C5.21713043,20.4310435 20.4302609,5.21791304 39.1301739,5.21791304 L39.1301739,5.21791304 Z M39.1301739,0 C17.5192174,0 0,17.5194783 0,39.1306957 C0,60.7421739 17.5192174,78.2608696 39.1301739,78.2608696 C60.7408696,78.2608696 78.2608696,60.7421739 78.2608696,39.1306957 C78.2608696,17.5194783 60.7408696,0 39.1301739,0 L39.1301739,0 L39.1301739,0 Z" id="Shape"></path>
                    <g transform="translate(6.260870, 6.260870)" id="Shape">
                        <path d="M5.42973913,32.8698261 C5.42973913,32.1367826 5.46730435,31.4133913 5.52391304,30.6962609 L0.340956522,30.6962609 C0.293478261,31.4154783 0.260608696,32.138087 0.260608696,32.8698261 C0.260608696,33.6013043 0.293478261,34.3244348 0.340956522,35.0426087 L5.52391304,35.0426087 C5.46730435,34.326 5.42973913,33.6026087 5.42973913,32.8698261 L5.42973913,32.8698261 Z"></path>
                        <path d="M60.309913,32.8698261 C60.309913,33.6026087 60.2718261,34.326 60.2149565,35.0426087 L65.3981739,35.0426087 C65.4456522,34.3244348 65.478,33.6013043 65.478,32.8698261 C65.478,32.138087 65.4456522,31.4154783 65.3981739,30.6962609 L60.2149565,30.6962609 C60.2718261,31.4133913 60.309913,32.1367826 60.309913,32.8698261 L60.309913,32.8698261 Z"></path>
                        <path d="M32.8693043,5.43026087 C33.6018261,5.43026087 34.3249565,5.46756522 35.0431304,5.52443478 L35.0431304,0.341478261 C34.3236522,0.293478261 33.6002609,0.260608696 32.8693043,0.260608696 C32.1383478,0.260608696 31.4144348,0.293478261 30.6954783,0.341478261 L30.6954783,5.52469565 C31.4133913,5.46756522 32.1370435,5.43026087 32.8693043,5.43026087 L32.8693043,5.43026087 Z"></path>
                        <path d="M32.8693043,60.309913 C32.1370435,60.309913 31.4136522,60.2718261 30.6954783,60.2149565 L30.6954783,65.3976522 C31.4144348,65.4466957 32.1383478,65.4793043 32.8693043,65.4793043 C33.6002609,65.4793043 34.323913,65.4464348 35.0431304,65.3976522 L35.0431304,60.2149565 C34.3246957,60.2715652 33.6018261,60.309913 32.8693043,60.309913 L32.8693043,60.309913 Z"></path>
                        <path d="M44.6613913,57.6417391 L47.25,62.126087 C48.5561739,61.4817391 49.8133043,60.7575652 51.014087,59.9496522 L48.4215652,55.4593043 C47.2317391,56.2813043 45.9766957,57.0135652 44.6613913,57.6417391 L44.6613913,57.6417391 Z"></path>
                        <path d="M21.0772174,8.09791304 L18.4883478,3.61304348 C17.1826957,4.2573913 15.9250435,4.98286957 14.7250435,5.78921739 L17.3170435,10.2798261 C18.5071304,9.4586087 19.7629565,8.72634783 21.0772174,8.09791304 L21.0772174,8.09791304 Z"></path>
                        <path d="M55.4587826,48.422087 L59.9491304,51.0143478 C60.7565217,49.8135652 61.4812174,48.5564348 62.1258261,47.2510435 L57.6412174,44.6616522 C57.0130435,45.9769565 56.2807826,47.2327826 55.4587826,48.422087 L55.4587826,48.422087 Z"></path>
                        <path d="M10.2798261,17.3173043 L5.78973913,14.7250435 C4.98313043,15.9247826 4.2573913,17.1826957 3.61304348,18.4883478 L8.0973913,21.0774783 C8.72556522,19.7629565 9.4586087,18.5073913 10.2798261,17.3173043 L10.2798261,17.3173043 Z"></path>
                        <path d="M57.6409565,21.0777391 L62.1255652,18.4883478 C61.4809565,17.1826957 60.7562609,15.9250435 59.9488696,14.7250435 L55.4585217,17.3173043 C56.2807826,18.5073913 57.0130435,19.7629565 57.6409565,21.0777391 L57.6409565,21.0777391 Z"></path>
                        <path d="M8.0973913,44.6616522 L3.61252174,47.2510435 C4.25686957,48.5564348 4.9826087,49.8135652 5.78921739,51.0143478 L10.2793043,48.4215652 C9.45808696,47.232 8.72556522,45.9761739 8.0973913,44.6616522 L8.0973913,44.6616522 Z"></path>
                        <path d="M48.4215652,10.280087 L51.0146087,5.79052174 C49.8138261,4.98365217 48.555913,4.25765217 47.2505217,3.61330435 L44.6611304,8.09817391 C45.9766957,8.72634783 47.2317391,9.4586087 48.4215652,10.280087 L48.4215652,10.280087 Z"></path>
                        <path d="M17.3170435,55.4595652 L14.7245217,59.949913 C15.9247826,60.7562609 17.1824348,61.482 18.4878261,62.1263478 L21.0772174,57.642 C19.7624348,57.0135652 18.5066087,56.2813043 17.3170435,55.4595652 L17.3170435,55.4595652 Z"></path>
                    </g>
                    <path d="M38.1753913,42.6944348 L26.4362609,22.3612174 L30.9547826,19.7522609 L40.0849565,35.5669565 L49.1225217,30.3498261 L51.7312174,34.8678261 L38.1753913,42.6944348 Z" id="Shape"></path>
                </g>
            </g>
        </g>
    </g>
</svg>