<?xml version="1.0" encoding="UTF-8" standalone="no"?>
<svg width="150px" height="150px" viewBox="0 0 150 150" version="1.1" xmlns="http://www.w3.org/2000/svg" xmlns:xlink="http://www.w3.org/1999/xlink" xmlns:sketch="http://www.bohemiancoding.com/sketch/ns">
    <!-- Generator: Sketch 3.5.1 (25234) - http://www.bohemiancoding.com/sketch -->
    <title>Oval 9 + Flashbulb</title>
    <desc>Created with Sketch.</desc>
    <defs></defs>
    <g id="Page-1" stroke="none" stroke-width="1" fill="none" fill-rule="evenodd" sketch:type="MSPage">
        <g id="Oval-9-+-Flashbulb" sketch:type="MSLayerGroup">
            <circle id="Oval-9" fill="#4A4A4A" sketch:type="MSShapeGroup" cx="75" cy="75" r="75"></circle>
            <g id="cog" transform="translate(29.347826, 29.347826)" fill="#FFFFFF" sketch:type="MSShapeGroup">
                <g id="Group">
                    <path d="M51.5362319,3.55072464 L51.5362319,12.5797101 C51.5362319,14.2028986 52.6521739,15.6231884 54.0724638,16.0289855 C56.2028986,16.5362319 58.2318841,17.4492754 60.1594203,18.5652174 C60.6666667,18.9710145 61.2753623,19.0724638 61.9855072,19.0724638 C62.8985507,19.0724638 63.8115942,18.6666667 64.5217391,17.9565217 L70.6086957,11.6666667 L79.1304348,20.2898551 L72.8405797,26.5797101 C71.7246377,27.6956522 71.4202899,29.4202899 72.3333333,30.942029 C73.4492754,32.8695652 74.2608696,34.8985507 74.8695652,37.0289855 C75.2753623,38.6521739 76.6956522,39.5652174 78.3188406,39.5652174 L87.1449275,39.5652174 L87.1449275,51.7391304 L78.3188406,51.7391304 C76.6956522,51.7391304 75.2753623,52.8550725 74.8695652,54.2753623 C74.3623188,56.4057971 73.4492754,58.6376812 72.3333333,60.3623188 C71.6231884,61.7826087 71.826087,63.4057971 72.8405797,64.7246377 L79.1304348,71.0144928 L70.7101449,79.6376812 L64.6231884,73.3478261 C63.9130435,72.6376812 63,72.2318841 62.0869565,72.2318841 C61.5797101,72.2318841 60.8695652,72.4347826 60.2608696,72.7391304 C58.3333333,73.8550725 56.3043478,74.6666667 54.173913,75.2753623 C52.7536232,75.7826087 51.6376812,77.1014493 51.6376812,78.7246377 L51.6376812,87.7536232 L39.7681159,87.7536232 L39.7681159,78.7246377 C39.7681159,77.1014493 38.6521739,75.6811594 37.2318841,75.2753623 C35.1014493,74.7681159 33.0724638,73.8550725 31.1449275,72.7391304 C30.6376812,72.3333333 30.0289855,72.2318841 29.3188406,72.2318841 C28.4057971,72.2318841 27.4927536,72.6376812 26.7826087,73.3478261 L20.6956522,79.6376812 L12.173913,71.0144928 L18.4637681,64.7246377 C19.5797101,63.6086957 19.884058,61.884058 18.9710145,60.3623188 C17.8550725,58.4347826 17.0434783,56.4057971 16.4347826,54.2753623 C16.0289855,52.6521739 14.6086957,51.7391304 12.9855072,51.7391304 L4.36231884,51.7391304 L4.36231884,39.5652174 L13.1884058,39.5652174 C14.8115942,39.5652174 16.2318841,38.4492754 16.6376812,37.0289855 C17.1449275,34.8985507 18.057971,32.6666667 19.173913,30.942029 C19.884058,29.5217391 19.6811594,27.8985507 18.6666667,26.5797101 L12.173913,20.2898551 L20.5942029,11.6666667 L26.6811594,17.9565217 C27.3913043,18.6666667 28.3043478,19.0724638 29.2173913,19.0724638 C29.7246377,19.0724638 30.4347826,18.8695652 31.0434783,18.5652174 C32.9710145,17.4492754 35,16.6376812 37.1304348,16.0289855 C38.5507246,15.5217391 39.6666667,14.2028986 39.6666667,12.5797101 L39.6666667,3.55072464 L51.5362319,3.55072464 L51.5362319,3.55072464 Z M55.1884058,0 L36.115942,0 L36.115942,12.5797101 C33.7826087,13.2898551 31.4492754,14.2028986 29.3188406,15.4202899 L20.6956522,6.5942029 L7.20289855,20.2898551 L15.826087,29.115942 C14.6086957,31.2463768 13.6956522,33.5797101 12.9855072,35.9130435 L0.811594203,35.9130435 L0.811594203,55.2898551 L13.1884058,55.2898551 C13.8985507,57.6231884 14.8115942,59.9565217 16.0289855,62.0869565 L7.4057971,71.0144928 L20.8985507,84.7101449 L29.5217391,75.884058 C31.6521739,77.1014493 33.9855072,78.0144928 36.3188406,78.7246377 L36.3188406,91.3043478 L55.3913043,91.3043478 L55.3913043,78.7246377 C57.7246377,78.0144928 60.057971,77.1014493 62.1884058,75.884058 L70.8115942,84.7101449 L84.3043478,71.0144928 L75.6811594,62.1884058 C76.8985507,60.057971 77.8115942,57.7246377 78.5217391,55.3913043 L90.5942029,55.3913043 L90.5942029,35.9130435 L78.2173913,35.9130435 C77.5072464,33.5797101 76.5942029,31.2463768 75.3768116,29.115942 L84,20.2898551 L70.4057971,6.69565217 L61.7826087,15.5217391 C59.6521739,14.3043478 57.3188406,13.3913043 54.9855072,12.6811594 L54.9855072,0 L55.1884058,0 L55.1884058,0 Z" id="Shape"></path>
                    <path d="M45.6521739,37.2318841 C50.3188406,37.2318841 53.8695652,40.9855072 53.8695652,45.6521739 C53.8695652,50.3188406 50.115942,54.0724638 45.6521739,54.0724638 C41.1884058,54.0724638 37.4347826,50.3188406 37.4347826,45.6521739 C37.4347826,40.9855072 40.9855072,37.2318841 45.6521739,37.2318841 L45.6521739,37.2318841 Z M45.6521739,33.5797101 C38.9565217,33.5797101 33.7826087,38.9565217 33.7826087,45.6521739 C33.7826087,52.3478261 39.1594203,57.7246377 45.6521739,57.7246377 C52.1449275,57.7246377 57.5217391,52.3478261 57.5217391,45.6521739 C57.5217391,38.9565217 52.3478261,33.5797101 45.6521739,33.5797101 L45.6521739,33.5797101 L45.6521739,33.5797101 Z" id="Shape"></path>
                </g>
            </g>
        </g>
    </g>
</svg>