<?xml version="1.0" encoding="UTF-8" standalone="no"?>
<svg width="150px" height="150px" viewBox="0 0 150 150" version="1.1" xmlns="http://www.w3.org/2000/svg" xmlns:xlink="http://www.w3.org/1999/xlink" xmlns:sketch="http://www.bohemiancoding.com/sketch/ns">
    <!-- Generator: Sketch 3.5.1 (25234) - http://www.bohemiancoding.com/sketch -->
    <title>The Imagine Pitch Competition</title>
    <desc>Created with Sketch.</desc>
    <defs></defs>
    <g id="Page-1" stroke="none" stroke-width="1" fill="none" fill-rule="evenodd" sketch:type="MSPage">
        <g id="The-Imagine-Pitch-Competition" sketch:type="MSLayerGroup">
            <circle id="Oval-9" fill="#4A4A4A" sketch:type="MSShapeGroup" cx="75" cy="75" r="75"></circle>
            <g id="noun_51399_cc" transform="translate(48.913043, 26.086957)" fill="#FFFFFF" sketch:type="MSShapeGroup">
                <path d="M41.4941399,15.1903438 L41.4941399,51.2722447 C41.4941399,59.494186 34.7863894,66.2191608 26.5905482,66.2191608 L24.889225,66.2191608 C16.6911153,66.2191608 9.98336484,59.494186 9.98336484,51.2722447 L9.98336484,48.0485339 L30.8960302,48.0485339 C31.9871456,48.0485339 32.8831758,47.1498989 32.8831758,46.0556117 L32.8831758,45.2411527 C32.8831758,44.1491405 31.9871456,43.2482305 30.8960302,43.2482305 L9.98109641,43.2482305 L9.98109641,36.4163296 L30.8937618,36.4163296 C31.9848771,36.4163296 32.8809074,35.5199697 32.8809074,34.4234075 L32.8809074,33.6134985 C32.8809074,32.5169363 31.9848771,31.6205763 30.8937618,31.6205763 L9.98109641,31.6205763 L9.98109641,24.7886754 L30.8937618,24.7886754 C31.9848771,24.7886754 32.8809074,23.8877654 32.8809074,22.7957533 L32.8809074,21.9767442 C32.8809074,20.880182 31.9848771,19.983822 30.8937618,19.983822 L9.98109641,19.983822 L9.98109641,15.1926188 C9.98109641,6.97295248 16.6888469,0.24570273 24.8869565,0.24570273 L26.5882798,0.24570273 C34.7863894,0.241152679 41.4941399,6.96840243 41.4941399,15.1903438 L41.4941399,15.1903438 Z M50.7924386,51.3154702 L50.7924386,40.4681496 C50.7924386,38.8164813 49.4586011,37.4833165 47.8139887,37.4833165 C46.1693762,37.4833165 44.8378072,38.8187563 44.8378072,40.4681496 L44.8378072,51.3154702 C44.8378072,61.8761375 36.2744802,70.4643579 25.7444234,70.4643579 C15.2120983,70.4643579 6.6510397,61.8761375 6.6510397,51.3154702 L6.6510397,40.4681496 C6.6510397,38.8164813 5.31493384,37.4833165 3.67485822,37.4833165 C2.02797732,37.4833165 0.696408318,38.8187563 0.696408318,40.4681496 L0.696408318,51.3154702 C0.696408318,64.0942872 10.2646503,74.6708797 22.5867675,76.231547 L22.5867675,91.4855915 L10.3508507,91.4855915 C8.70850662,91.4855915 7.37240076,92.8346815 7.37240076,94.4749747 L7.37240076,94.5159252 L7.37240076,96.8842265 L44.6109641,96.8842265 L44.6109641,94.5159252 L44.6109641,94.4749747 C44.6109641,92.8301314 43.2703214,91.4855915 41.6347826,91.4855915 L28.5482042,91.4855915 L28.5482042,76.2747725 C41.0381853,74.875632 50.7924386,64.2194135 50.7924386,51.3154702 L50.7924386,51.3154702 Z" id="Shape"></path>
            </g>
        </g>
    </g>
</svg>