<?xml version="1.0" encoding="UTF-8" standalone="no"?>
<svg width="150px" height="150px" viewBox="0 0 150 150" version="1.1" xmlns="http://www.w3.org/2000/svg" xmlns:xlink="http://www.w3.org/1999/xlink" xmlns:sketch="http://www.bohemiancoding.com/sketch/ns">
    <!-- Generator: Sketch 3.5.1 (25234) - http://www.bohemiancoding.com/sketch -->
    <title>Product Vision Challenge</title>
    <desc>Created with Sketch.</desc>
    <defs></defs>
    <g id="Page-1" stroke="none" stroke-width="1" fill="none" fill-rule="evenodd" sketch:type="MSPage">
        <g id="Product-Vision-Challenge" sketch:type="MSLayerGroup">
            <ellipse id="Oval-9-Copy-2" fill="#4A4A4A" sketch:type="MSShapeGroup" cx="75" cy="75" rx="75" ry="75"></ellipse>
            <g id="hands" transform="translate(29.347826, 45.391304)" fill="#FFFFFF" sketch:type="MSShapeGroup">
                <g id="eye">
                    <g id="Group" transform="translate(0.000000, 0.623188)">
                        <path d="M89.7561437,26.9492754 C80.2416352,11.0672878 64.0678639,0.466873706 45.6551512,0.466873706 C27.2325142,0.466873706 11.0686673,11.0672878 1.55415879,26.9492754 C0.802882798,28.1925466 0.802882798,29.7691511 1.55415879,31.0175983 C11.0686673,46.8964803 27.2315217,57.5041408 45.6551512,57.5041408 C64.0678639,57.5041408 80.2416352,46.8964803 89.7561437,31.0175983 C90.4974953,29.7691511 90.4974953,28.1925466 89.7561437,26.9492754 L89.7561437,26.9492754 Z M45.6561437,49.8395445 C30.7864367,49.8395445 17.5205104,41.7308489 9.06890359,28.9803313 C17.5205104,16.2298137 30.7864367,8.13457557 45.6561437,8.13457557 C60.519896,8.13457557 73.7848299,16.2298137 82.2433837,28.9803313 C73.7848299,41.7308489 60.5189036,49.8395445 45.6561437,49.8395445 L45.6561437,49.8395445 Z" id="Shape"></path>
                        <path d="M45.6978261,28.4254658 L50.189603,22.7846791 C48.9103497,21.7153209 47.306569,21.0496894 45.5350662,21.0496894 C41.3975898,21.0496894 38.0401701,24.5507246 38.0401701,28.8695652 C38.0401701,33.1884058 41.3975898,36.6873706 45.5350662,36.6873706 C49.6755198,36.6873706 53.0339319,33.1884058 53.0339319,28.8695652 C53.0339319,27.5817805 52.7044423,26.3850932 52.176465,25.3136646 L45.6978261,28.4254658 L45.6978261,28.4254658 Z" id="Shape"></path>
                        <path d="M55.3224953,23.805383 C56.0519376,25.3385093 56.5015123,27.0414079 56.5015123,28.8695652 C56.5015123,35.1884058 51.5919187,40.3064182 45.5350662,40.3064182 C39.4811909,40.3064182 34.56862,35.1884058 34.56862,28.8695652 C34.56862,22.5548654 39.4821834,17.4327122 45.5350662,17.4327122 C48.1451796,17.4327122 50.5151229,18.4244306 52.3997637,20.015528 L55.9556711,15.5486542 C53.1153119,13.126294 49.4869565,11.6728778 45.5350662,11.6728778 C36.4314272,11.6728778 29.0456994,19.3747412 29.0456994,28.8706004 C29.0456994,38.3706004 36.4314272,46.0693582 45.5350662,46.0693582 C54.6416824,46.0693582 62.0244329,38.3695652 62.0244329,28.8706004 C62.0244329,26.184265 61.4150756,23.6511387 60.3630907,21.3871636 L55.3224953,23.805383 L55.3224953,23.805383 Z" id="Shape"></path>
                    </g>
                </g>
            </g>
        </g>
    </g>
</svg>