<?xml version="1.0" standalone="no"?>
<!DOCTYPE svg PUBLIC "-//W3C//DTD SVG 20010904//EN"
 "http://www.w3.org/TR/2001/REC-SVG-20010904/DTD/svg10.dtd">
<svg version="1.0" xmlns="http://www.w3.org/2000/svg"
 width="700.000000pt" height="256.000000pt" viewBox="0 0 700.000000 256.000000"
 preserveAspectRatio="xMidYMid meet">
<metadata>
Created by potrace 1.13, written by Peter Selinger 2001-2015
</metadata>
<g transform="translate(0.000000,256.000000) scale(0.100000,-0.100000)"
fill="#000000" stroke="none">
<path d="M360 1449 c0 -285 3 -519 6 -519 3 0 82 43 174 95 92 52 171 95 174
95 4 0 5 -46 4 -101 l-3 -102 -165 -96 c-91 -53 -171 -100 -179 -105 -14 -9 3
-21 120 -88 l45 -27 170 99 169 98 5 280 5 281 140 -80 c77 -43 145 -79 150
-79 6 0 75 36 153 80 79 44 145 80 148 80 2 0 4 -127 4 -282 l1 -283 167 -96
167 -97 55 31 c30 17 72 41 93 54 l37 23 0 630 c0 347 -2 630 -4 630 -2 0
-179 -103 -392 -228 -214 -126 -398 -234 -410 -240 -19 -10 -71 18 -428 228
l-406 238 0 -519z"/>
<path d="M2490 1405 l0 -455 80 0 80 0 2 337 3 338 89 -290 c49 -160 96 -312
103 -338 l15 -48 81 3 82 3 102 330 102 330 3 -330 3 -330 83 -3 82 -3 0 456
0 456 -137 -3 -137 -3 -90 -308 c-49 -169 -93 -304 -96 -300 -5 6 -124 406
-171 576 l-10 37 -134 0 -135 0 0 -455z"/>
<path d="M3695 1848 c-3 -7 -52 -197 -110 -423 -58 -225 -110 -425 -115 -442
l-8 -33 87 0 88 0 18 80 18 81 136 -3 135 -3 19 -77 19 -78 84 0 c57 0 84 4
84 12 0 6 -53 211 -117 455 l-118 443 -108 0 c-77 0 -109 -4 -112 -12z m164
-379 c22 -97 41 -179 41 -183 0 -9 -180 -7 -180 2 -1 24 85 371 91 364 4 -4
25 -86 48 -183z"/>
<path d="M4326 1845 c-64 -24 -106 -64 -135 -124 -26 -56 -26 -57 -26 -301 0
-291 6 -322 75 -390 56 -57 113 -75 231 -74 73 0 96 5 143 28 109 53 136 120
136 333 l0 143 -150 0 -150 0 0 -80 0 -80 70 0 70 0 0 -40 c0 -52 -21 -103
-51 -124 -28 -19 -116 -22 -154 -4 -50 23 -55 48 -55 282 l0 216 28 31 c24 27
37 33 83 36 78 6 119 -18 139 -79 l15 -48 78 0 77 0 0 40 c0 90 -57 183 -140
226 -48 25 -228 30 -284 9z"/>
<path d="M4820 1405 l0 -456 83 3 82 3 5 267 5 268 127 -268 127 -267 80 -3
81 -3 0 456 0 455 -80 0 -80 0 -2 -270 -3 -270 -127 267 -128 268 -85 3 -85 3
0 -456z"/>
<path d="M5492 1408 l3 -453 255 0 255 0 0 80 0 80 -172 3 -173 2 0 105 0 105
145 0 145 0 0 80 0 80 -145 0 -145 0 0 105 0 105 175 0 175 0 0 80 0 80 -260
0 -260 0 2 -452z"/>
<path d="M6090 1780 l0 -80 105 0 105 0 0 -375 0 -375 80 0 80 0 0 375 0 375
110 0 110 0 0 80 0 80 -295 0 -295 0 0 -80z"/>
<path d="M2480 739 l0 -140 28 3 c25 3 27 7 30 55 l3 52 42 3 c37 3 42 6 42
28 0 22 -5 25 -42 28 -40 3 -43 5 -43 33 0 28 1 29 50 29 47 0 50 2 50 25 0
25 -1 25 -80 25 l-80 0 0 -141z"/>
<path d="M2985 855 c-23 -22 -25 -32 -25 -113 0 -116 14 -137 90 -137 76 0 90
21 90 137 0 81 -2 91 -25 113 -18 19 -35 25 -65 25 -30 0 -47 -6 -65 -25z"/>
<path d="M3460 740 l0 -140 25 0 c23 0 25 3 25 50 0 46 2 50 23 50 19 0 26 -9
38 -47 12 -41 18 -48 43 -51 22 -3 27 0 23 11 -26 69 -29 95 -13 118 25 36 21
95 -9 124 -21 22 -33 25 -90 25 l-65 0 0 -140z"/>
<path d="M3960 740 l0 -141 78 3 c71 3 77 5 80 26 3 21 0 22 -52 22 -56 0 -56
0 -56 30 0 29 2 30 45 30 43 0 45 1 45 30 0 29 -2 30 -45 30 -43 0 -45 1 -45
30 0 30 1 30 55 30 52 0 55 1 55 25 0 25 -1 25 -80 25 l-80 0 0 -140z"/>
<path d="M4432 743 l3 -138 25 0 c24 0 25 3 30 73 l5 72 34 -75 c31 -69 36
-76 60 -73 l26 3 3 138 3 137 -31 0 -30 0 -1 -72 0 -73 -37 73 c-32 64 -40 72
-64 72 l-29 0 3 -137z"/>
<path d="M4960 860 c-23 -23 -27 -86 -7 -113 6 -9 32 -23 57 -30 34 -10 46
-18 48 -35 2 -12 -1 -22 -6 -22 -6 0 -17 -3 -26 -6 -8 -3 -22 3 -33 15 -18 22
-48 28 -58 12 -9 -16 16 -58 42 -70 55 -25 117 -5 133 44 19 58 -8 99 -76 113
-33 7 -39 12 -39 32 0 30 34 39 58 16 23 -23 57 -21 57 4 0 35 -35 60 -85 60
-32 0 -51 -6 -65 -20z"/>
<path d="M5432 743 l3 -138 25 0 25 0 3 138 3 137 -31 0 -31 0 3 -137z"/>
<path d="M5829 861 c-22 -18 -24 -26 -24 -116 0 -94 1 -98 28 -121 53 -45 143
-18 149 46 4 34 -27 38 -56 6 -17 -17 -30 -23 -45 -19 -20 5 -22 11 -19 87 3
81 3 81 31 84 22 3 30 -1 34 -17 4 -15 13 -21 35 -21 23 0 29 4 24 16 -3 9 -6
20 -6 25 0 5 -9 18 -20 29 -27 27 -99 27 -131 1z"/>
<path d="M6330 860 c-23 -23 -27 -86 -7 -113 6 -9 32 -23 57 -30 34 -10 46
-18 48 -35 2 -12 -1 -22 -6 -22 -6 0 -17 -3 -26 -6 -8 -3 -22 3 -33 15 -18 21
-48 28 -57 13 -11 -18 8 -53 35 -67 57 -30 122 -11 139 40 19 58 -8 99 -76
113 -33 7 -39 12 -39 32 0 30 35 39 55 15 16 -19 60 -20 60 -1 0 7 -9 25 -21
40 -27 34 -98 37 -129 6z"/>
</g>
</svg>
